<svg xmlns="http://www.w3.org/2000/svg" version="1.1" xmlns:xlink="http://www.w3.org/1999/xlink" xmlns:svgjs="http://svgjs.dev/svgjs" width="1000" height="1000" viewBox="0 0 1000 1000"><rect width="1000" height="1000" fill="#000000"></rect><g transform="matrix(0.7,0,0,0.7,149.5757585651342,468.80327460569873)"><svg viewBox="0 0 396 36" data-background-color="#ffffff" preserveAspectRatio="xMidYMid meet" height="90" width="1000" xmlns="http://www.w3.org/2000/svg" xmlns:xlink="http://www.w3.org/1999/xlink"><g id="tight-bounds" transform="matrix(1,0,0,1,0.2399994402954917,-0.17329977468500601)"><svg viewBox="0 0 395.52 36.34659954937002" height="36.34659954937002" width="395.52"><g><svg viewBox="0 0 395.52 36.34659954937002" height="36.34659954937002" width="395.52"><g><svg viewBox="0 0 473.7394267013228 43.534630949284775" height="36.34659954937002" width="395.52"><g><rect width="3.906465618652379" height="43.534630949284775" x="64.08661129562239" y="0" fill="#ffffff" opacity="1" stroke-width="0" stroke="transparent" fill-opacity="1" class="rect-o-0" data-fill-palette-color="primary" rx="1%" id="o-0" data-palette-color="#3d3839"></rect></g><g transform="matrix(1,0,0,1,78.21942670132287,0.10829510186389157)"><svg viewBox="0 0 395.52 43.31804074555699" height="43.31804074555699" width="395.52"><g id="textblocktransform"><svg viewBox="0 0 395.52 43.31804074555699" height="43.31804074555699" width="395.52" id="textblock"><g><svg viewBox="0 0 395.52 43.31804074555699" height="43.31804074555699" width="395.52"><g transform="matrix(1,0,0,1,0,0)"><svg width="395.52" viewBox="3.950000047683716 -37.650001525878906 346.0299987792969 37.900001525878906" height="43.31804074555699" data-palette-color="#3d3839"><path d="M33.15-25.8L33.15-25.8Q33.15-22.1 31.43-19.63 29.7-17.15 26.7-15.9 23.7-14.65 19.7-14.65L19.7-14.65 11.85-14.65Q11.35-14.65 11.35-14.15L11.35-14.15 11.35-1Q11.35 0 10.25 0L10.25 0 4.85 0Q4.35 0 4.15-0.23 3.95-0.45 3.95-0.9L3.95-0.9 3.95-36.25Q3.95-37.1 4.7-37.1L4.7-37.1 18.85-37.1Q22.85-37.1 26.1-35.9 29.35-34.7 31.25-32.2 33.15-29.7 33.15-25.8L33.15-25.8ZM25.55-25.95L25.55-25.95Q25.55-28 24.68-29.28 23.8-30.55 22.18-31.15 20.55-31.75 18.45-31.75L18.45-31.75 12.2-31.75Q11.35-31.75 11.35-30.95L11.35-30.95 11.35-20.85Q11.35-20 12-20L12-20 18.75-20Q21.85-20 23.7-21.53 25.55-23.05 25.55-25.95L25.55-25.95ZM68.1-1.2L68.1-1.2Q68.3-0.75 68.1-0.38 67.9 0 67.45 0L67.45 0 61.35 0Q60.65 0 60.35-0.8L60.35-0.8 54.6-15.4Q54.35-16.05 53.25-16.05L53.25-16.05 47.25-16.05Q46.9-16.05 46.77-15.88 46.65-15.7 46.65-15.5L46.65-15.5 46.65-1.05Q46.65 0 45.5 0L45.5 0 40.2 0Q39.65 0 39.45-0.23 39.25-0.45 39.25-0.9L39.25-0.9 39.25-36.25Q39.25-37.1 40-37.1L40-37.1 55.05-37.1Q61.45-37.1 65.02-34.52 68.6-31.95 68.6-27.1L68.6-27.1Q68.6-24.45 67.6-22.48 66.6-20.5 65-19.23 63.4-17.95 61.6-17.3L61.6-17.3Q61.15-17.2 61.4-16.65L61.4-16.65 68.1-1.2ZM54-21.15L54-21.15Q57.4-21.15 59.17-22.5 60.95-23.85 60.95-26.55L60.95-26.55Q60.95-29.3 59.25-30.68 57.55-32.05 54.6-32.05L54.6-32.05 47.55-32.05Q46.65-32.05 46.65-31.35L46.65-31.35 46.65-21.9Q46.65-21.15 47.3-21.15L47.3-21.15 54-21.15ZM74.9-36.25L74.9-36.25Q74.9-37.1 75.65-37.1L75.65-37.1 99.9-37.1Q100.55-37.1 100.55-36.35L100.55-36.35 100.55-32.55Q100.55-31.6 99.65-31.6L99.65-31.6 83.15-31.6Q82.3-31.6 82.3-30.9L82.3-30.9 82.3-22.15Q82.3-21.4 83-21.4L83-21.4 94.4-21.4Q95.15-21.4 95.15-20.65L95.15-20.65 95.15-16.6Q95.15-16.35 95-16.18 94.85-16 94.45-16L94.45-16 82.95-16Q82.3-16 82.3-15.4L82.3-15.4 82.3-6.1Q82.3-5.5 82.85-5.5L82.85-5.5 100.35-5.5Q101.15-5.5 101.15-4.8L101.15-4.8 101.15-0.75Q101.15-0.45 100.95-0.23 100.75 0 100.3 0L100.3 0 75.85 0Q74.9 0 74.9-0.9L74.9-0.9 74.9-36.25ZM136.34-25.8L136.34-25.8Q136.34-22.1 134.62-19.63 132.89-17.15 129.89-15.9 126.89-14.65 122.89-14.65L122.89-14.65 115.04-14.65Q114.54-14.65 114.54-14.15L114.54-14.15 114.54-1Q114.54 0 113.44 0L113.44 0 108.04 0Q107.54 0 107.34-0.23 107.14-0.45 107.14-0.9L107.14-0.9 107.14-36.25Q107.14-37.1 107.89-37.1L107.89-37.1 122.04-37.1Q126.04-37.1 129.29-35.9 132.54-34.7 134.44-32.2 136.34-29.7 136.34-25.8L136.34-25.8ZM128.74-25.95L128.74-25.95Q128.74-28 127.87-29.28 126.99-30.55 125.37-31.15 123.74-31.75 121.64-31.75L121.64-31.75 115.39-31.75Q114.54-31.75 114.54-30.95L114.54-30.95 114.54-20.85Q114.54-20 115.19-20L115.19-20 121.94-20Q125.04-20 126.89-21.53 128.74-23.05 128.74-25.95L128.74-25.95ZM156.59-37.65L156.59-37.65Q159.69-37.65 162.06-36.7 164.44-35.75 165.84-34 167.24-32.25 167.24-29.85L167.24-29.85Q167.24-28.2 166.31-26.45 165.39-24.7 163.59-23.1 161.79-21.5 159.19-20.3L159.19-20.3Q158.84-20.1 158.79-19.95 158.74-19.8 159.04-19.45L159.04-19.45 165.19-12.5Q165.49-12.2 165.67-12.2 165.84-12.2 166.19-12.6L166.19-12.6Q166.89-13.35 167.62-14.28 168.34-15.2 169.02-16.2 169.69-17.2 170.22-18.18 170.74-19.15 171.04-19.9L171.04-19.9Q171.34-20.6 172.09-20.35L172.09-20.35 175.34-19.3Q175.69-19.2 175.87-18.85 176.04-18.5 175.94-18.15L175.94-18.15Q175.44-16.8 174.54-15.3 173.64-13.8 172.44-12.18 171.24-10.55 169.84-8.95L169.84-8.95Q169.54-8.55 169.56-8.4 169.59-8.25 169.94-8L169.94-8Q170.74-7.3 171.87-6.78 172.99-6.25 174.31-5.95 175.64-5.65 176.94-5.6L176.94-5.6Q177.84-5.55 177.84-4.75L177.84-4.75 177.84-1.1Q177.84-0.6 177.59-0.3 177.34 0 176.79 0L176.79 0Q174.59 0 172.44-0.48 170.29-0.95 168.39-1.8 166.49-2.65 165.04-3.75L165.04-3.75Q164.64-3.95 164.44-3.95 164.24-3.95 163.84-3.7L163.84-3.7Q161.39-1.75 158.56-0.75 155.74 0.25 152.29 0.25L152.29 0.25Q146.74 0.25 143.59-2.38 140.44-5 140.44-9.6L140.44-9.6Q140.44-12.55 142.37-15.05 144.29-17.55 148.59-20L148.59-20Q149.09-20.3 149.12-20.53 149.14-20.75 148.64-21.25L148.64-21.25Q147.14-22.95 146.29-24.8 145.44-26.65 145.44-28.45L145.44-28.45Q145.44-31.1 146.89-33.18 148.34-35.25 150.89-36.45 153.44-37.65 156.59-37.65L156.59-37.65ZM156.89-33.55L156.89-33.55Q155.34-33.55 154.24-32.9 153.14-32.25 152.56-31.2 151.99-30.15 151.99-28.95L151.99-28.95Q151.99-28.1 152.42-27.2 152.84-26.3 153.59-25.4L153.59-25.4 155.14-23.6Q155.34-23.4 155.62-23.4 155.89-23.4 156.09-23.5L156.09-23.5Q158.84-24.85 160.12-26.33 161.39-27.8 161.39-29.6L161.39-29.6Q161.39-31.5 160.09-32.52 158.79-33.55 156.89-33.55L156.89-33.55ZM153.19-16.2L153.19-16.2Q152.84-16.65 152.54-16.68 152.24-16.7 151.84-16.45L151.84-16.45Q149.84-15.4 148.67-13.75 147.49-12.1 147.49-10.2L147.49-10.2Q147.49-8.65 148.31-7.4 149.14-6.15 150.54-5.4 151.94-4.65 153.64-4.65L153.64-4.65Q155.34-4.65 157.06-5.33 158.79-6 159.99-7.1L159.99-7.1Q160.34-7.35 160.42-7.63 160.49-7.9 160.14-8.3L160.14-8.3 153.19-16.2ZM183.34-36.25L183.34-36.25Q183.34-37.1 184.09-37.1L184.09-37.1 190.04-37.1Q190.74-37.1 190.74-36.3L190.74-36.3 190.74-6.1Q190.74-5.5 191.29-5.5L191.29-5.5 207.69-5.5Q208.49-5.5 208.49-4.8L208.49-4.8 208.49-0.75Q208.49-0.45 208.29-0.23 208.09 0 207.64 0L207.64 0 184.29 0Q183.74 0 183.54-0.23 183.34-0.45 183.34-0.9L183.34-0.9 183.34-36.25ZM214.29-36.25L214.29-36.25Q214.29-37.1 215.04-37.1L215.04-37.1 239.29-37.1Q239.94-37.1 239.94-36.35L239.94-36.35 239.94-32.55Q239.94-31.6 239.04-31.6L239.04-31.6 222.54-31.6Q221.69-31.6 221.69-30.9L221.69-30.9 221.69-22.15Q221.69-21.4 222.39-21.4L222.39-21.4 233.79-21.4Q234.54-21.4 234.54-20.65L234.54-20.65 234.54-16.6Q234.54-16.35 234.39-16.18 234.24-16 233.84-16L233.84-16 222.34-16Q221.69-16 221.69-15.4L221.69-15.4 221.69-6.1Q221.69-5.5 222.24-5.5L222.24-5.5 239.74-5.5Q240.54-5.5 240.54-4.8L240.54-4.8 240.54-0.75Q240.54-0.45 240.34-0.23 240.14 0 239.69 0L239.69 0 215.24 0Q214.29 0 214.29-0.9L214.29-0.9 214.29-36.25ZM245.08 0L245.08 0Q244.73 0 244.53-0.35 244.33-0.7 244.53-1.25L244.53-1.25 257.13-36.2Q257.33-36.7 257.58-36.9 257.83-37.1 258.33-37.1L258.33-37.1 264.58-37.1Q265.63-37.1 265.98-36.1L265.98-36.1 278.48-1.2Q278.63-0.8 278.48-0.4 278.33 0 277.93 0L277.93 0 271.88 0Q271.18 0 270.98-0.65L270.98-0.65 268.08-8.75Q268.03-9 267.91-9.13 267.78-9.25 267.48-9.25L267.48-9.25 254.43-9.25Q253.98-9.25 253.83-8.8L253.83-8.8 250.83-0.6Q250.78-0.3 250.56-0.15 250.33 0 249.93 0L249.93 0 245.08 0ZM256.13-14.9L265.68-14.9Q266.33-14.9 266.08-15.7L266.08-15.7 261.28-29.05Q261.13-29.4 260.93-29.4 260.73-29.4 260.58-29L260.58-29 255.73-15.7Q255.43-14.9 256.13-14.9L256.13-14.9ZM313.18-1.2L313.18-1.2Q313.38-0.75 313.18-0.38 312.98 0 312.53 0L312.53 0 306.43 0Q305.73 0 305.43-0.8L305.43-0.8 299.68-15.4Q299.43-16.05 298.33-16.05L298.33-16.05 292.33-16.05Q291.98-16.05 291.86-15.88 291.73-15.7 291.73-15.5L291.73-15.5 291.73-1.05Q291.73 0 290.58 0L290.58 0 285.28 0Q284.73 0 284.53-0.23 284.33-0.45 284.33-0.9L284.33-0.9 284.33-36.25Q284.33-37.1 285.08-37.1L285.08-37.1 300.13-37.1Q306.53-37.1 310.11-34.52 313.68-31.95 313.68-27.1L313.68-27.1Q313.68-24.45 312.68-22.48 311.68-20.5 310.08-19.23 308.48-17.95 306.68-17.3L306.68-17.3Q306.23-17.2 306.48-16.65L306.48-16.65 313.18-1.2ZM299.08-21.15L299.08-21.15Q302.48-21.15 304.26-22.5 306.03-23.85 306.03-26.55L306.03-26.55Q306.03-29.3 304.33-30.68 302.63-32.05 299.68-32.05L299.68-32.05 292.63-32.05Q291.73-32.05 291.73-31.35L291.73-31.35 291.73-21.9Q291.73-21.15 292.38-21.15L292.38-21.15 299.08-21.15ZM344.73-37.1L349.38-37.1Q349.98-37.1 349.98-36.4L349.98-36.4 349.98-0.75Q349.98-0.4 349.75-0.2 349.53 0 349.13 0L349.13 0 344.98 0Q344.63 0 344.38-0.08 344.13-0.15 343.78-0.55L343.78-0.55 326.68-24.85Q326.48-25.15 326.3-25.1 326.13-25.05 326.13-24.8L326.13-24.8 326.13-0.8Q326.18 0 325.28 0L325.28 0 320.88 0Q319.98 0 319.98-0.8L319.98-0.8 319.98-36.25Q319.98-37.1 320.78-37.1L320.78-37.1 325.78-37.1Q326.28-37.1 326.53-36.98 326.78-36.85 327.08-36.45L327.08-36.45 343.18-13.25Q343.48-12.85 343.7-12.93 343.93-13 343.93-13.4L343.93-13.4 343.93-36.3Q343.93-37.1 344.73-37.1L344.73-37.1Z" opacity="1" transform="matrix(1,0,0,1,0,0)" fill="#ffffff" class="undefined-text-0" data-fill-palette-color="primary" id="text-0"></path></svg></g></svg></g></svg></g></svg></g><g transform="matrix(1,0,0,1,0,0.10829510186389157)"><svg viewBox="0 0 53.860261508574276 43.31804074555699" height="43.31804074555699" width="53.860261508574276"><g><svg xmlns="http://www.w3.org/2000/svg" xmlns:xlink="http://www.w3.org/1999/xlink" version="1.1" x="0" y="0" viewBox="0 9.78600025177002 100.0003433227539 80.42699432373047" enable-background="new 0 0 100 100" xml:space="preserve" width="53.860261508574276" height="43.31804074555699" class="icon-icon-0" data-fill-palette-color="accent" id="icon-0"><path d="M49.942 52.994c13.552-0.488 27.103-0.977 40.653-1.465-2.527-4.177-3.159-7.831-7.989-8.461-7.229-0.94-14.458-1.883-21.688-2.826-14.023-1.827-28.05-3.654-42.075-5.48C20.101 36.792 39.724 53.361 49.942 52.994z" fill="#ffffff" data-fill-palette-color="accent"></path><path d="M0 9.786c4.391 7.257 26.615 23.072 32.953 23.886 17.33 2.231 34.657 4.46 51.986 6.688-3.393-5.607-4.18-9.35-10.312-10.959-8.904-2.341-17.812-4.683-26.717-7.023C31.94 18.182 15.97 13.984 0 9.786z" fill="#ffffff" data-fill-palette-color="accent"></path><path d="M63.108 66.207c10.413-2.219 20.826-4.439 31.241-6.66-2.028-3.346-2.034-5.359-5.827-5.189-6.158 0.273-12.314 0.549-18.471 0.822-11.343 0.506-22.686 1.014-34.028 1.518C37.298 58.064 54.94 67.947 63.108 66.207z" fill="#ffffff" data-fill-palette-color="accent"></path><path d="M87.682 90.213c5.725-3.719 7.262-7.721 10.519-13.807 3.651-6.824 1.257-7.844-2.821-14.596-0.417-0.688-5.842 0.232-6.453 0.904-0.745 0.818-0.248 5.455-0.294 6.496C88.315 76.211 87.998 83.213 87.682 90.213z" fill="#ffffff" data-fill-palette-color="accent"></path><path d="M86.35 63.447c-3.795 0.809-8.604 0.191-9.572 4.229-1.373 5.736-2.746 11.475-4.12 17.211C81.904 82.678 86.028 71.582 86.35 63.447z" fill="#ffffff" data-fill-palette-color="accent"></path><path d="M74.666 66.121c-9.148 1.953-8.956 4.611-12.879 13.18C68.007 78.711 73.811 71.941 74.666 66.121z" fill="#ffffff" data-fill-palette-color="accent"></path></svg></g></svg></g></svg></g></svg></g><defs><mask id="fe58f788-f6b5-4001-abe6-563785947ffa"><rect width="640" height="400" fill="white"></rect><rect width="174.02880000000002" height="25.508296127861286" fill="black" y="110.84585193606935" x="110.74559999999998" id="transform-me"></rect></mask><mask id="5e231bca-2bb2-4936-b169-7d15aeb5eedc"><rect width="640" height="400" fill="white"></rect><rect width="174.02880000000002" height="25.508296127861286" fill="black" y="110.84585193606935" x="110.74559999999998" id="transform-me"></rect></mask></defs></svg><rect width="395.52" height="36.34659954937002" fill="none" stroke="none" visibility="hidden"></rect></g></svg></g></svg>